<svg xmlns="http://www.w3.org/2000/svg" viewBox="0 0 40.69 32.77"><defs><style>.a,.g{fill:#008e84;}.a{fill-rule:evenodd;}.b,.c,.d,.e,.f{fill:none;}.c,.d,.f{stroke:#008e84;}.c,.d,.e,.f{stroke-miterlimit:10;}.c{stroke-width:0.62px;}.d{stroke-width:0.16px;}.e{stroke:#231f20;stroke-width:0.03px;}.f{stroke-width:0.23px;}</style></defs><title>ico-vegan</title><path class="a" d="M40.1,22.56v-.19c0-.15-.07-.18-.13-.2a.27.27,0,0,0,.15-.26c0-.23-.18-.29-.35-.29h-.5V22.7h.14v-.46h.36c.17,0,.19.1.19.19a1.22,1.22,0,0,0,0,.27h.18v0s-.05,0-.05-.11m-.36-.46H39.4v-.36h.36c.08,0,.2,0,.2.18s-.12.19-.22.19"/><path class="b" d="M39.4,22.23h.36c.17,0,.19.1.19.19a1.22,1.22,0,0,0,0,.27h.18v0s-.05,0-.05-.11v-.19c0-.15-.07-.18-.13-.2a.27.27,0,0,0,.15-.26c0-.23-.18-.29-.35-.29h-.5V22.7h.14Zm0-.49h.36c.08,0,.2,0,.2.18s-.12.19-.22.19H39.4Z"/><path class="c" d="M11.85,26.87C4.75,25.5.31,20.48.31,13.65a13.37,13.37,0,0,1,26.74,0,13.67,13.67,0,0,1-2.19,7.45"/><path class="a" d="M16.88,8a7.35,7.35,0,0,1-1.55,1.61A10.5,10.5,0,0,1,12.24,11c-.89.21-2.22.51-2.92-.35-.48-.56-.13-1.36.35-2a7.89,7.89,0,0,1,2.45-2.27A11.27,11.27,0,0,1,14.4,5.39a7.21,7.21,0,0,1,2-.43l.89.11a1.47,1.47,0,0,1,.79.48,1.66,1.66,0,0,1-.32,1.84,7.85,7.85,0,0,1-.62.84c-.31.31-1,.45-1.47.83a11,11,0,0,1-2.43,1.36,9.3,9.3,0,0,1-2.32.62,2.48,2.48,0,0,1-.8-.13,1.2,1.2,0,0,1-.59-.4,1.6,1.6,0,0,1-.1-.43c-.08-.59.4-1.15.85-1.74a7.9,7.9,0,0,1,2.11-1.79,10.44,10.44,0,0,1,2.41-1.07,10.85,10.85,0,0,1,1.1-.24l.16,0a5,5,0,0,1,1.2.07,1,1,0,0,1,.7.95,3.6,3.6,0,0,1-.11.53,6,6,0,0,1-1,1.19"/><path class="d" d="M16.88,8a7.35,7.35,0,0,1-1.55,1.61A10.5,10.5,0,0,1,12.24,11c-.89.21-2.22.51-2.92-.35-.48-.56-.13-1.36.35-2a7.89,7.89,0,0,1,2.45-2.27A11.27,11.27,0,0,1,14.4,5.39a7.21,7.21,0,0,1,2-.43l.89.11a1.47,1.47,0,0,1,.79.48,1.66,1.66,0,0,1-.32,1.84,7.85,7.85,0,0,1-.62.84c-.31.31-1,.45-1.47.83a11,11,0,0,1-2.43,1.36,9.3,9.3,0,0,1-2.32.62,2.48,2.48,0,0,1-.8-.13,1.2,1.2,0,0,1-.59-.4,1.6,1.6,0,0,1-.1-.43c-.08-.59.4-1.15.85-1.74a7.9,7.9,0,0,1,2.11-1.79,10.44,10.44,0,0,1,2.41-1.07,10.85,10.85,0,0,1,1.1-.24l.16,0a5,5,0,0,1,1.2.07,1,1,0,0,1,.7.95,3.6,3.6,0,0,1-.11.53A6,6,0,0,1,16.88,8Z"/><line class="e" x1="17.25" y1="5.33" x2="17.24" y2="5.33"/><path class="f" d="M38.76,22.19a.91.91,0,1,1,.9.94.92.92,0,0,1-.9-.94"/><path class="a" d="M21,27.05c-.53-.05-1,.72-1.49.88a.85.85,0,0,1-.64.08c-1.1-.27-1.21-1-1.21-2.14h3.58a2.75,2.75,0,0,0-1.06-3.13,4,4,0,0,0-1.39-.4,2.75,2.75,0,0,0-1.07.24,3.07,3.07,0,0,0-1.55,1.6A3.76,3.76,0,0,0,16,26.36a3.87,3.87,0,0,0,.69,1.57c1.55,1.84,3.77,1.39,4.54-.64,0-.08-.11-.21-.24-.24m-2.32-3.82c.75,0,1.17,1,.94,1.73H17.7c-.05-.64.21-1.73,1-1.73"/><path class="a" d="M39.71,28.45c-.1-.29-.67-.19-.75-.51a4.24,4.24,0,0,1,0-1c0-.91.08-1.71.05-2.45a3.61,3.61,0,0,0-.11-1,1.81,1.81,0,0,0-.72-.72,2,2,0,0,0-1.25-.16c-.51.13-.61.45-1,.69a1.18,1.18,0,0,0-.11-.62.5.5,0,0,0-.37-.13,1.45,1.45,0,0,0-.85.21c-.62.21-1,.43-1.12.78-.13.53.64.56.75.8a31,31,0,0,1-.08,3.39,1.08,1.08,0,0,1-.1.35c-1.07.43-1.23-.21-1.21-1.2,0-.75.11-1.63.11-2.3a1.79,1.79,0,0,0,0-.67,1.83,1.83,0,0,0-1.37-1.15,3.66,3.66,0,0,0-2.38.24c-1.37.8-1,2.48-.13,2.51a1.22,1.22,0,0,0,.61-.19c.11-.05.14-.24.19-.29.21-.37-.8-1.1.11-1.61a.9.9,0,0,1,1,1.5,7.49,7.49,0,0,1-1.81,1h0c-.9.42-1.56.84-1.35,1.82A1.75,1.75,0,0,0,29,29c.85.3,2.09-.45,2.46-.35.19.05.21.19.53.3a8.08,8.08,0,0,0,1.41,0c.67,0,1.87,0,3.24,0a1.16,1.16,0,0,0,0-.53.75.75,0,0,0-.24-.19c-.21-.1-.53-.16-.62-.32a8.33,8.33,0,0,1,0-2.14c0-.89,0-1.71.91-1.9a.49.49,0,0,1,.53.13c.32.24.35.83.29,1.66s0,1,0,1.61a2.74,2.74,0,0,0,0,.48v.16a.38.38,0,0,1-.06.19c-.16.13-.43.19-.48.37a3,3,0,0,0,0,.46h2.89a2.22,2.22,0,0,0-.05-.51m-8.82-.91a.91.91,0,0,1-.94.41.6.6,0,0,1-.5-.27.9.9,0,0,1-.1-.39h0a1.62,1.62,0,0,1,.54-.64,8.25,8.25,0,0,1,.89-.47.94.94,0,0,0,.49-.3,3,3,0,0,1-.37,1.66"/><path class="a" d="M22.11,26.81h0a4.22,4.22,0,0,0,2.46,1.12A3.49,3.49,0,0,1,26.3,29a1.44,1.44,0,0,1-.42,1.87,2.13,2.13,0,0,1-1.74.59c-.94-.16-1.6-1.15-1.31-1.76a.8.8,0,0,1,.67-.46c.35,0,.48.32.69.46a.63.63,0,0,0,.62,0,.86.86,0,0,0,.42-.8A1.87,1.87,0,0,0,22.83,28a2.45,2.45,0,0,0-1,1,2.72,2.72,0,0,0-.24,1.5,2.52,2.52,0,0,0,.62,1.25,3.82,3.82,0,0,0,1.57.89,3.47,3.47,0,0,0,3.5-1.07A3,3,0,0,0,28,30.53a1.63,1.63,0,0,0,.19-1,1.94,1.94,0,0,0-.4-1.07,1.65,1.65,0,0,0-.86-.56c-.21,0-.42-.1-.42-.24a.43.43,0,0,1,.19-.4,4.21,4.21,0,0,1,.56-.37,3.53,3.53,0,0,0,.46-.51,2.76,2.76,0,0,0,.37-.8,2,2,0,0,0-.19-1.42,2.92,2.92,0,0,0-1-1c-.19-.13-.32-.27-.19-.48.37-.56,1.17.4,1.73.29a1,1,0,0,0,.72-.53,1.23,1.23,0,0,0,.3-.88c-.91.8-1.77-.05-2.52.13-.29.06-.72.62-.83.88-.56-.06-.8-.16-1.25-.19a4.25,4.25,0,0,0-1.21.19,3.15,3.15,0,0,0-1.68,1.25,2.7,2.7,0,0,0-.35,1.9,3.5,3.5,0,0,0,.53,1.07m2.94.32a1.17,1.17,0,0,1-.42.1,1.52,1.52,0,0,1-.48-.1c-.69-.3-.59-1.12-.59-1.87l0,0h0l0,0c0-.69,0-1.39.53-1.74a1.23,1.23,0,0,1,.54-.19,1.2,1.2,0,0,1,.61.19c.56.32.4,1.07.4,1.74s.1,1.57-.59,1.87"/><path class="g" d="M20.11,16.5c-.51.13-2.14-.05-3.07.62a2.34,2.34,0,0,0-1,2.13,6.52,6.52,0,0,0,.3,1.42c.37-1.74,1-2.7,2.86-2.86-.16.58-.64.64-1.25,1.44A20.79,20.79,0,0,0,16,21.77a11.14,11.14,0,0,0-1.15,2.14s-.08.19-.19.43-.16.42-.35.45c0-3.53-1.25-4.62.3-8a16.84,16.84,0,0,0,.83-2,16.17,16.17,0,0,0,.24-4c.27.05.69.56.91.89A2.56,2.56,0,0,1,16.82,10c.59.08.35.67.64,1.45l.24-2a4.92,4.92,0,0,1,2,0c-.51-.4-.94-.53-1.07-1.07a5.16,5.16,0,0,0,2.14-.24c-1-.59-1.3-.8-1.39-1a4,4,0,0,0,2-1.55,1.89,1.89,0,0,1-1.22.48c.08-.56.9-1,1.41-1.25a6.6,6.6,0,0,0-2.16.29,2.65,2.65,0,0,1,1-2c-.62.24-1.07.89-1.79.94a2.36,2.36,0,0,1,.64-1.25.19.19,0,0,0-.06-.1,26.53,26.53,0,0,0-2.37,1.77h0a1.13,1.13,0,0,1-.14-.32c0-.53-.08-.83.24-1.28a4.08,4.08,0,0,0-1.25,1.44,5.11,5.11,0,0,0-1-1.18C14.45,3,14.28,3,14.07,3A2.21,2.21,0,0,1,14,4.69a2.23,2.23,0,0,1-1.28-.83,2.63,2.63,0,0,1,.13,1.52.82.82,0,0,1-.58-1c-.43.37-.3.8-.48,1.41a1.67,1.67,0,0,1-1.39-1A4.18,4.18,0,0,0,10.49,7c-.88,0-1.71,0-2-.73-.16.73.24,1.07.48,1.79A7.83,7.83,0,0,0,8,8.38c-.8.27-1.47.72-2.08.88a4.53,4.53,0,0,0,1.55.14L5.76,11.13C6.91,10.78,6,10.6,8,10.6L6.13,12.68a4.66,4.66,0,0,1,2.38-.78c0,.35-.86,1.39-.67,2.09a3.74,3.74,0,0,1,2.36-1.5c-.11,1-.32,1.31-.48,1.39,1.21-.26,1.31-1.17,2-1.31.1.43.26.64.35,1.12a4.07,4.07,0,0,1,1-2A4.43,4.43,0,0,1,13,13.4a3.31,3.31,0,0,0,1.37-1.79,3.52,3.52,0,0,1,.41.11,1.61,1.61,0,0,1,.37.18,7.72,7.72,0,0,1-.3,2.56c-.21.67-.56,1.25-.77,1.79a11.51,11.51,0,0,0-.83,2.86c-.24,1.18.4,4.94.11,4.84-.06,0-.08.1-.19-.11-.14-.37-.17-.53-.3-1A7.72,7.72,0,0,0,12,21c-2.3-3.9-4.89-4.54-5.29-4.59a10.83,10.83,0,0,0,1.1,1,12.28,12.28,0,0,1,2,2.43,15.2,15.2,0,0,1,2.51,5.66c.16.8.37,1.68.46,2.49,0,.26.08.59.08.8H15A13.87,13.87,0,0,1,15.8,24a15.29,15.29,0,0,1,.88-1.87c.17-.27.4-.7.64-1,.13-.16.32-.24.37-.37A1.83,1.83,0,0,0,19,20.72a1.56,1.56,0,0,0,.83-.4,1.89,1.89,0,0,0,.62-.72c.48-1,.21-1.68.58-2.61s.75-1,1-1.74a5.46,5.46,0,0,1-1.89,1.25m-5.34-5.27a1.71,1.71,0,0,0-.59-.2,2.21,2.21,0,0,1-.75,1.36,8.78,8.78,0,0,0,0-1.49,1.6,1.6,0,0,0-1,1.07c-.24.42-.26.29-.37.48a9.74,9.74,0,0,1-.24-1c-.4.16-.3,1-1.31,1.45.1-.19,0-.48,0-1.21l-1.89.91c.24-.59.61-1,.67-1.25l-1.74.29a3.39,3.39,0,0,0,.7-.83c.32-.35.4-.43.42-.59H7.09L9.12,9a8.14,8.14,0,0,1-1.57.13,14,14,0,0,1,1.28-.64c.32-.14.48-.14.88-.3a1.28,1.28,0,0,1-.78-.91,3,3,0,0,0,2-.13c-.08-.51-.35-.78-.19-1.23.67,0,.72.37,1.36.51a5.09,5.09,0,0,1,.14-.94,2.16,2.16,0,0,0,.88.29,2.54,2.54,0,0,0,.13-1,1.7,1.7,0,0,0,.94.48,7,7,0,0,1,.37-1.55A2.15,2.15,0,0,1,15.33,5a2.13,2.13,0,0,0,.87-.5l.19.37,0,0a.17.17,0,0,0,0,.09l.05,0v0h0l0,0,1.76-1.29s0,0,0,.06A3.2,3.2,0,0,0,17.89,5a12.1,12.1,0,0,0,1.31-.88,6.2,6.2,0,0,1-.59,1.55l1.55-.48a2.88,2.88,0,0,1-1.61,1.12c.14.3.62.19,1.18.19-.75.3-.94.32-1.47.53a8.45,8.45,0,0,1,1.41.83,4.18,4.18,0,0,1-1.79-.11A1.68,1.68,0,0,0,18.61,9c-.64.1-.85-.13-1.44-.21.08.43.24.51,0,.88a1.82,1.82,0,0,0-1.12,0c.05.27.32.43.24.86-.37-.16-.53-.37-.91-.43a4.53,4.53,0,0,0-.24,1.37l-.37-.2"/></svg>