<svg xmlns="http://www.w3.org/2000/svg" viewBox="0 0 33 37.3">
  <defs>
    <style>
      .cls-1 {
        fill: #008e84;
      }

      .cls-2 {
        fill: #f8991d;
      }
    </style>
  </defs>
  <title>logo-vegan-society-sml</title>
  <g id="Layer_2" data-name="Layer 2">
    <g id="content">
      <g>
        <path class="cls-1" d="M33,9a.18.18,0,0,0-.14-.07h0c-6.54.59-10.57,5.73-12.81,9.94A37.67,37.67,0,0,0,16.63,28v.05h-.43V28a37.64,37.64,0,0,0-3.36-9.23C10.61,14.66,6.63,9.57.2,8.9A.18.18,0,0,0,0,9a.18.18,0,0,0,.06.21l.14.1.23.17C8.12,15,12.41,23.83,14,37.14a.18.18,0,0,0,.18.16h4.52a.18.18,0,0,0,.18-.15C19.95,28.57,22.61,17.46,29,13.26l.1-.07a6.46,6.46,0,0,1-4.85,7.12.18.18,0,0,0,0,.34,10.08,10.08,0,0,0,2.14.29A4.94,4.94,0,0,0,30,19.5a6.41,6.41,0,0,0,1.58-3,20.9,20.9,0,0,0,.5-3.34A12.44,12.44,0,0,1,33,9.12.17.17,0,0,0,33,9"/>
        <path class="cls-2" d="M29.42,5.39a.16.16,0,0,0-.15,0A28.72,28.72,0,0,1,26,5.93h0l-1.26.18h-.08l0-.08c-.1-.4-.2-.81-.33-1.27a28.72,28.72,0,0,1-.72-3.26.16.16,0,0,0-.25-.1,28.55,28.55,0,0,1-2.81,1.79l-1.13.67-.07,0,0-.07c-.24-.33-.5-.67-.79-1A28.68,28.68,0,0,1,16.54.07.15.15,0,0,0,16.41,0a.15.15,0,0,0-.13.07A28.43,28.43,0,0,1,14.36,2.8l-.79,1.05,0,.07-.07,0-1.13-.67A28.66,28.66,0,0,1,9.51,1.42a.16.16,0,0,0-.25.1,28.7,28.7,0,0,1-.72,3.26c-.1.39-.22.84-.32,1.27l0,.08H8.12l-1.3-.19a28.54,28.54,0,0,1-3.28-.58.16.16,0,0,0-.15,0,.16.16,0,0,0,0,.15,23.94,23.94,0,0,1,.48,2.58v.09l.09,0c.42.16.85.34,1.26.54l.28.13L5.23,7.63l-.06-.36,0-.12.12,0c1.05.18,1.87.33,2.57.49l.08,0v.08a5.31,5.31,0,0,0,.46,3.06l0,0a19.79,19.79,0,0,1,2.31,2.26l.06.07.09,0a3.19,3.19,0,0,1,.8-.1,5.71,5.71,0,0,1,1.08.12h0a.16.16,0,0,0,.18-.12V13a4.89,4.89,0,0,1,.52-1.48l0-.06.06,0a4.81,4.81,0,0,1,1.41.68l0,0a.17.17,0,0,0,.22-.05l0,0a4.85,4.85,0,0,1,1-1.17l.05,0,.05,0a4.81,4.81,0,0,1,1,1.17l0,0a.18.18,0,0,0,.23,0l0,0a4.78,4.78,0,0,1,1.41-.68l.06,0,0,.06A4.81,4.81,0,0,1,19.83,13v.05a.16.16,0,0,0,.15.12h.08a5.47,5.47,0,0,1,1.07-.12,3.2,3.2,0,0,1,.81.1l.09,0,.06-.07a19.91,19.91,0,0,1,2.32-2.27l0,0a5.3,5.3,0,0,0,.45-3V7.68l.07,0c.69-.16,1.51-.31,2.57-.49l.12,0,0,.12c-.09.51-.16,1-.24,1.35l-.06.3.28-.13c.41-.2.84-.38,1.26-.54l.09,0V8.12a23.88,23.88,0,0,1,.48-2.58.16.16,0,0,0,0-.15M23,6.47a5.93,5.93,0,0,0-2,.94l-.12.09,0-.15a5.91,5.91,0,0,0-.72-2l0-.07.06,0c.58-.41,1.28-.87,2.19-1.44l.1-.06,0,.12c.24,1,.41,1.85.53,2.56v.08Zm-2.71,6A4.59,4.59,0,0,1,23,8.23l.22-.09v.17s0,0,0,.07a4.59,4.59,0,0,1-2.86,4.17l-.14.07Zm-2.42-1-.1.11,0-.14a4.59,4.59,0,0,1,.93-5l.17-.17.07.17,0,.05a4.59,4.59,0,0,1-1,4.94M18,4.81l-.06,0a6,6,0,0,0-1.45,1.61l-.07.13-.07-.13a5.92,5.92,0,0,0-1.45-1.61l-.06,0,0-.07c.38-.61.85-1.3,1.47-2.16l.07-.1.07.1c.62.86,1.08,1.55,1.47,2.16ZM15.1,11.43l0,.14-.1-.11a4.59,4.59,0,0,1-1-4.94l0-.06L14,6.3l.17.17a4.59,4.59,0,0,1,.93,5m-2.56,1.18-.14-.07A4.59,4.59,0,0,1,9.55,8.38s0,0,0-.07V8.14l.22.09a4.59,4.59,0,0,1,2.76,4.24Zm-.63-5.26,0,.15-.12-.09a5.93,5.93,0,0,0-2-.94l-.07,0V6.38c.12-.71.29-1.52.53-2.56l0-.12.1.06c.91.57,1.6,1,2.18,1.44l.06,0,0,.07a5.92,5.92,0,0,0-.72,2"/>
      </g>
    </g>
  </g>
</svg>
