<svg xmlns="http://www.w3.org/2000/svg" viewBox="0 0 323.71 112.37">
  <defs>
    <style>
      .cls-1 {
        fill: #008e84;
      }

      .cls-2 {
        fill: #f8991d;
      }
    </style>
  </defs>
  <title>logo-vegan-society-lrg</title>
  <g id="Layer_2" data-name="Layer 2">
    <g id="content">
      <g>
        <path class="cls-1" d="M35.23,94.69a6.81,6.81,0,0,1,7,6.87,7,7,0,1,1-13.93,0,6.81,6.81,0,0,1,7-6.87m0,11.69a4.57,4.57,0,0,0,4.44-4.82,4.45,4.45,0,1,0-8.88,0,4.57,4.57,0,0,0,4.44,4.82"/>
        <path class="cls-1" d="M43.6,98.71h2.32v1.12a6,6,0,0,1,0,.66h0a3.75,3.75,0,0,1,3.44-2c2.14,0,3.36,1.12,3.36,3.68v6.23H50.32v-5.73c0-1.18-.3-2-1.54-2a2.67,2.67,0,0,0-2.6,2,4.07,4.07,0,0,0-.17,1.29v4.44H43.6Z"/>
        <path class="cls-1" d="M59.1,98.48c2.79,0,4.29,2,4.29,4.59,0,.29-.06.93-.06.93H56.65a2.75,2.75,0,0,0,2.9,2.56,4.78,4.78,0,0,0,2.79-1.06l.93,1.73a6,6,0,0,1-3.89,1.39,5,5,0,0,1-5.2-5.07,4.79,4.79,0,0,1,4.92-5.07M61,102.35a1.87,1.87,0,0,0-1.92-2,2.26,2.26,0,0,0-2.32,2Z"/>
        <path class="cls-1" d="M68,98.71h2.54l1.69,6.36a8.27,8.27,0,0,1,.19,1h0s.1-.51.23-1l1.78-6.34H76.6l1.78,6.34c.13.51.21,1,.21,1h0s.08-.51.21-1l1.69-6.36H83l-2.94,9.68H77.42l-1.63-5.52c-.15-.51-.25-1-.25-1h0a8.33,8.33,0,0,1-.23,1l-1.63,5.52h-2.7Z"/>
        <path class="cls-1" d="M88.74,98.48a5.07,5.07,0,1,1-5.31,5.07,5.1,5.1,0,0,1,5.31-5.07m0,8.09a3,3,0,1,0-2.88-3,2.88,2.88,0,0,0,2.88,3"/>
        <path class="cls-1" d="M95.56,98.71h2.32v1.67a6.55,6.55,0,0,1,0,.68h0a3.33,3.33,0,0,1,3.07-2.49,2.73,2.73,0,0,1,.44,0V101a4.12,4.12,0,0,0-.57,0,2.74,2.74,0,0,0-2.64,2,5.17,5.17,0,0,0-.21,1.57v3.83H95.56Z"/>
        <path class="cls-1" d="M102.52,94.91h2.39V105c0,1.06.36,1.33,1,1.33l.36,0v2.11a5.66,5.66,0,0,1-.76.06c-1.33,0-3-.34-3-3.11Z"/>
        <path class="cls-1" d="M111.38,98.48a3,3,0,0,1,2.79,1.24h0s0-.25,0-.55V94.91h2.41v13.48h-2.28v-.8a4.87,4.87,0,0,1,0-.63h0a3.36,3.36,0,0,1-3,1.65c-2.62,0-4.29-2.07-4.29-5.07s1.82-5.07,4.38-5.07m.46,8.11c1.25,0,2.43-.91,2.43-3.06,0-1.5-.8-3-2.41-3-1.33,0-2.43,1.08-2.43,3s1,3,2.41,3"/>
        <rect class="cls-1" x="118.35" y="105.98" width="2.41" height="2.41"/>
        <path class="cls-1" d="M127,94.91h2.62l2.64,6.66c.3.8.68,2,.68,2h0s.36-1.18.67-2l2.64-6.66h2.62L140,108.39h-2.43l-.57-7.54c-.06-.89,0-2.09,0-2.09h0s-.4,1.31-.72,2.09L134,106.07h-2.14l-2.16-5.22c-.32-.78-.74-2.11-.74-2.11h0s0,1.21,0,2.11l-.57,7.54H125.9Z"/>
        <path class="cls-1" d="M147,102.32h.32v-.13c0-1.27-.8-1.71-1.86-1.71a5.18,5.18,0,0,0-2.66.93l-.91-1.73a6.53,6.53,0,0,1,3.8-1.2c2.54,0,4,1.41,4,3.85v6.05h-2.22v-.8a6.14,6.14,0,0,1,0-.68h0a3.13,3.13,0,0,1-2.94,1.71,3,3,0,0,1-3.29-3c0-3.07,4.16-3.28,5.73-3.28m-1.84,4.42a2.49,2.49,0,0,0,2.18-2.54V104H147c-1.23,0-3.22.17-3.22,1.52a1.29,1.29,0,0,0,1.46,1.25"/>
        <path class="cls-1" d="M151.48,98.71h2.32v1.12a6,6,0,0,1,0,.66h0a3.75,3.75,0,0,1,3.44-2c2.14,0,3.36,1.12,3.36,3.68v6.23H158.2v-5.73c0-1.18-.3-2-1.54-2a2.67,2.67,0,0,0-2.6,2,4.07,4.07,0,0,0-.17,1.29v4.44h-2.41Z"/>
        <path class="cls-1" d="M162.15,109.94a2.12,2.12,0,0,0,1.08.4,1.83,1.83,0,0,0,1.67-1.25l.36-.85-4.08-9.53h2.71l2,5.58a11.55,11.55,0,0,1,.36,1.31h0a13.06,13.06,0,0,1,.32-1.27l1.9-5.62h2.64l-4.33,11.14a3.62,3.62,0,0,1-3.49,2.52,3.72,3.72,0,0,1-2-.63Z"/>
        <path class="cls-1" d="M176.08,94.91h2.39V105c0,1.06.36,1.33,1,1.33l.36,0v2.11a5.62,5.62,0,0,1-.76.06c-1.33,0-3-.34-3-3.11Z"/>
        <path class="cls-1" d="M181.26,94.91h2.39v2.14h-2.39Zm0,3.8h2.41v9.68h-2.41Z"/>
        <path class="cls-1" d="M184.62,98.71h2.54l2,6c.19.57.32,1.46.34,1.46h0s.15-.89.34-1.46l2-6h2.54L191,108.39h-2.85Z"/>
        <path class="cls-1" d="M199.55,98.48c2.79,0,4.29,2,4.29,4.59,0,.29-.06.93-.06.93h-6.68a2.75,2.75,0,0,0,2.9,2.56,4.78,4.78,0,0,0,2.79-1.06l.93,1.73a6.05,6.05,0,0,1-3.89,1.39,5,5,0,0,1-5.2-5.07,4.79,4.79,0,0,1,4.92-5.07m1.86,3.87a1.87,1.87,0,0,0-1.92-2,2.26,2.26,0,0,0-2.32,2Z"/>
        <path class="cls-1" d="M205.78,105.5a4,4,0,0,0,2.64,1.06c.68,0,1.27-.3,1.27-.87,0-1.44-4.71-1.25-4.71-4.36,0-1.8,1.61-2.85,3.7-2.85a4.63,4.63,0,0,1,3.25,1.1l-.89,1.78a3.68,3.68,0,0,0-2.37-.83c-.63,0-1.23.26-1.23.87,0,1.37,4.71,1.19,4.71,4.31,0,1.61-1.41,2.9-3.7,2.9a5.41,5.41,0,0,1-3.76-1.42Z"/>
        <rect class="cls-1" x="213.22" y="105.98" width="2.41" height="2.41"/>
        <path class="cls-1" d="M226.75,94.69a6.81,6.81,0,0,1,7,6.87,7,7,0,1,1-13.93,0,6.81,6.81,0,0,1,7-6.87m0,11.69a4.57,4.57,0,0,0,4.44-4.82,4.45,4.45,0,1,0-8.88,0,4.57,4.57,0,0,0,4.44,4.82"/>
        <path class="cls-1" d="M235.25,98.71h2.41v5.73c0,1.18.3,2,1.5,2,1.75,0,2.72-1.54,2.72-3.26V98.71h2.41v9.68H242v-1.1a6.43,6.43,0,0,1,0-.68h0a3.73,3.73,0,0,1-3.36,2c-2.07,0-3.36-1-3.36-3.68Z"/>
        <path class="cls-1" d="M246.47,98.71h2.32v1.67a6.55,6.55,0,0,1,0,.68h0a3.33,3.33,0,0,1,3.07-2.49,2.77,2.77,0,0,1,.44,0V101a4.16,4.16,0,0,0-.57,0,2.74,2.74,0,0,0-2.64,2,5.23,5.23,0,0,0-.21,1.57v3.83h-2.41Z"/>
        <path class="cls-1" d="M261.76,98.48a4.92,4.92,0,0,1,3.72,1.44l-1.06,1.65a3.8,3.8,0,0,0-2.52-1,2.88,2.88,0,0,0-2.94,3,3,3,0,0,0,3,3,4.45,4.45,0,0,0,2.85-1.23l.93,1.71a5.51,5.51,0,0,1-4,1.58,5.07,5.07,0,1,1,0-10.14"/>
        <path class="cls-1" d="M267.11,94.91h2.41v4.67c0,.47,0,.82,0,.82h0a3.73,3.73,0,0,1,3.34-1.92c2.14,0,3.36,1.12,3.36,3.68v6.23h-2.39v-5.73c0-1.18-.3-2-1.54-2a2.72,2.72,0,0,0-2.62,2,4.42,4.42,0,0,0-.15,1.25v4.44h-2.41Z"/>
        <path class="cls-1" d="M282.92,98.48a5.07,5.07,0,1,1-5.31,5.07,5.1,5.1,0,0,1,5.31-5.07m0,8.09a3,3,0,1,0-2.88-3,2.88,2.88,0,0,0,2.88,3"/>
        <path class="cls-1" d="M289.77,94.91h2.39v2.14h-2.39Zm0,3.8h2.41v9.68h-2.41Z"/>
        <path class="cls-1" d="M298.94,98.48a4.92,4.92,0,0,1,3.72,1.44l-1.06,1.65a3.8,3.8,0,0,0-2.52-1,2.88,2.88,0,0,0-2.94,3,3,3,0,0,0,3,3,4.45,4.45,0,0,0,2.85-1.23l.93,1.71a5.51,5.51,0,0,1-4,1.58,5.07,5.07,0,1,1,0-10.14"/>
        <path class="cls-1" d="M308.54,98.48c2.79,0,4.29,2,4.29,4.59,0,.29-.06.93-.06.93h-6.68a2.75,2.75,0,0,0,2.9,2.56,4.78,4.78,0,0,0,2.79-1.06l.93,1.73a6.05,6.05,0,0,1-3.89,1.39,5,5,0,0,1-5.2-5.07,4.79,4.79,0,0,1,4.92-5.07m1.86,3.87a1.87,1.87,0,0,0-1.92-2,2.26,2.26,0,0,0-2.32,2Z"/>
        <rect class="cls-1" x="313.91" y="105.98" width="2.41" height="2.41"/>
        <path class="cls-1" d="M58.69,48.53c8.31,0,12.77,6,12.77,13.68,0,.85-.17,2.77-.17,2.77H51.4c.45,5,4.35,7.63,8.65,7.63a14.24,14.24,0,0,0,8.31-3.16l2.77,5.14a18,18,0,0,1-11.59,4.13c-9.55,0-15.49-6.9-15.49-15.09,0-8.87,6-15.09,14.64-15.09m5.54,11.53c-.11-3.9-2.54-6-5.71-6-3.67,0-6.22,2.26-6.9,6Z"/>
        <path class="cls-1" d="M85.88,83.8c4.41,0,8.14-1.86,8.14-7V75.1a13.93,13.93,0,0,1,.11-1.52H94c-1.7,2.54-4.18,3.9-8,3.9C77.74,77.47,73,70.8,73,62.89s4.47-14.35,12.77-14.35c6.27,0,8.53,3.67,8.53,3.67h.17a5.48,5.48,0,0,1-.06-.79V49.21h6.72V76.28c0,9.89-7.69,13.62-15.2,13.62a23,23,0,0,1-10.23-2.49l2.15-5.48a19.38,19.38,0,0,0,8,1.86m8.31-20.86c0-6.56-3.22-8.31-7.12-8.31-4.35,0-6.78,3.16-6.78,8,0,5,2.6,8.76,7.23,8.76,3.45,0,6.67-2,6.67-8.48"/>
        <path class="cls-1" d="M119.9,60h1v-.4c0-3.79-2.37-5.09-5.54-5.09-4.13,0-7.91,2.77-7.91,2.77l-2.71-5.14A19.43,19.43,0,0,1,116,48.53c7.57,0,12,4.18,12,11.47V78h-6.61V75.66a18.16,18.16,0,0,1,.11-2h-.11a9.32,9.32,0,0,1-8.76,5.09c-5.14,0-9.78-3.22-9.78-9,0-9.16,12.38-9.78,17.07-9.78m-5.48,13.17c3.79,0,6.5-4.07,6.5-7.57v-.68h-1.24c-3.68,0-9.61.51-9.61,4.52,0,1.92,1.41,3.73,4.35,3.73"/>
        <path class="cls-1" d="M130.53,49.21h6.9v3.34a18,18,0,0,1-.11,2h.11a11.18,11.18,0,0,1,10.23-6c6.39,0,10,3.33,10,11V78h-7.12V61c0-3.5-.9-5.88-4.58-5.88A8,8,0,0,0,138.22,61a12.16,12.16,0,0,0-.51,3.84V78h-7.18Z"/>
        <path class="cls-1" d="M161.33,70.63A15.5,15.5,0,0,0,171.73,75c4.35,0,7.91-2.6,7.91-6.9,0-10-19.84-7.46-19.84-19.78,0-5.71,5-10.68,12.38-10.68a15.41,15.41,0,0,1,10.63,3.84l-1.92,3.28a13.55,13.55,0,0,0-8.7-3.39c-5.09,0-8.36,3.34-8.36,6.84,0,9.44,19.84,6.72,19.84,19.78,0,5.93-4.58,10.74-12,10.74A17.51,17.51,0,0,1,159,73.63Z"/>
        <path class="cls-1" d="M200.27,48.93a14.89,14.89,0,1,1-15,14.75,14.72,14.72,0,0,1,15-14.75m0,26.34c6.1,0,11.08-5,11.08-11.59a11.08,11.08,0,1,0-22.16,0c0,6.61,5,11.59,11.08,11.59"/>
        <path class="cls-1" d="M232.21,48.93c7,0,10.4,4.07,10.4,4.07l-2,2.88a12,12,0,0,0-8.31-3.45c-6.22,0-11.08,4.63-11.08,11.42a11,11,0,0,0,11.19,11.42,12.52,12.52,0,0,0,9.1-4l1.75,3a15.18,15.18,0,0,1-11.08,4.47c-8.42,0-14.92-6-14.92-14.86a14.53,14.53,0,0,1,14.92-14.92"/>
        <path class="cls-1" d="M246.39,38.3h4v4.8h-4Zm.11,11.3h3.84V78h-3.84Z"/>
        <path class="cls-1" d="M268,48.93c7.86,0,11.87,6,11.87,13.11,0,.68-.11,2-.11,2H257.92c.17,7.29,5.14,11.25,11,11.25a13.22,13.22,0,0,0,8.65-3.45l1.75,2.94a16.29,16.29,0,0,1-10.51,4c-8.48,0-14.86-6.1-14.86-14.87,0-9.33,6.33-14.92,14-14.92m8,11.93c-.23-5.93-3.84-8.7-8.08-8.7-4.75,0-8.87,3-9.78,8.7Z"/>
        <path class="cls-1" d="M284.32,53.17h-3.73V49.95h3.79v-8.2h3.79v8.2h7.12v3.22h-7.12V67.3c0,6.67,4.24,7.52,6.39,7.52a6.57,6.57,0,0,0,1.3-.11v3.45a10.19,10.19,0,0,1-1.64.11c-3.28,0-9.89-1.07-9.89-10.57Z"/>
        <path class="cls-1" d="M298,85.16a6.12,6.12,0,0,0,3.39,1.3c2.49,0,4.24-2,5.37-4.64l1.75-4-11.87-28.2h4.24l8.37,20.74c.57,1.41,1,3,1,3h.11a26.87,26.87,0,0,1,1-3l8.2-20.74h4.18L309.7,84c-1.47,3.62-4.41,5.93-8.2,5.93a8.42,8.42,0,0,1-5-1.7Z"/>
        <polygon class="cls-1" points="79.78 26.91 73.05 26.91 73.05 23.7 90.24 23.7 90.24 26.91 83.51 26.91 83.51 44.21 79.78 44.21 79.78 26.91"/>
        <path class="cls-1" d="M91.56,23.7h3.67v7.11a12.21,12.21,0,0,1-.06,1.24h.06a5.67,5.67,0,0,1,5.08-2.92c3.26,0,5.11,1.71,5.11,5.6v9.47h-3.64V35.49c0-1.79-.46-3-2.34-3a4.14,4.14,0,0,0-4,3.06,6.65,6.65,0,0,0-.23,1.91v6.76H91.56Z"/>
        <path class="cls-1" d="M114.49,29.14c4.25,0,6.53,3.09,6.53,7,0,.43-.09,1.42-.09,1.42H110.77a4.19,4.19,0,0,0,4.42,3.9,7.28,7.28,0,0,0,4.25-1.62l1.42,2.63a9.2,9.2,0,0,1-5.92,2.11A7.55,7.55,0,0,1,107,36.85c0-4.53,3.09-7.71,7.48-7.71M117.33,35A2.84,2.84,0,0,0,114.41,32,3.43,3.43,0,0,0,110.88,35Z"/>
        <path class="cls-1" d="M69,18.73a.37.37,0,0,0-.3-.15h0C55,19.8,46.52,30.56,41.84,39.37a78.83,78.83,0,0,0-7,19.31l0,.11h-.9l0-.11a78.76,78.76,0,0,0-7-19.31C22.2,30.68,13.87,20,.41,18.62a.37.37,0,0,0-.39.24.37.37,0,0,0,.13.43l.3.21.49.36c16,11.62,25,30,28.29,57.85a.37.37,0,0,0,.37.33h9.45a.37.37,0,0,0,.37-.32c2.32-17.94,7.88-41.17,21.2-50l.21-.14C61.6,33.28,58.77,40,50.69,42.52a.37.37,0,0,0,0,.71,21.09,21.09,0,0,0,4.49.61,10.33,10.33,0,0,0,7.66-3,13.41,13.41,0,0,0,3.31-6.21,43.73,43.73,0,0,0,1-7A26,26,0,0,1,69,19.09a.36.36,0,0,0,0-.36"/>
        <path class="cls-2" d="M61.56,11.27a.33.33,0,0,0-.31-.09,60.09,60.09,0,0,1-6.89,1.21H54.3c-.82.11-1.75.24-2.63.38l-.17,0,0-.16c-.2-.85-.43-1.7-.68-2.66a60.09,60.09,0,0,1-1.51-6.81A.33.33,0,0,0,48.75,3a59.73,59.73,0,0,1-5.89,3.75c-.93.54-1.65,1-2.36,1.4l-.14.09-.1-.14c-.5-.69-1-1.41-1.65-2.2a60,60,0,0,1-4-5.72A.32.32,0,0,0,34.33,0,.32.32,0,0,0,34,.15a59.48,59.48,0,0,1-4,5.72c-.63.82-1.15,1.51-1.65,2.2l-.1.14-.14-.09c-.72-.45-1.44-.86-2.37-1.4A60,60,0,0,1,19.91,3a.32.32,0,0,0-.52.21A60.05,60.05,0,0,1,17.88,10c-.22.82-.46,1.76-.68,2.66l0,.16-.17,0c-.87-.14-1.77-.26-2.72-.39a59.71,59.71,0,0,1-6.87-1.21.33.33,0,0,0-.31.08.33.33,0,0,0-.09.31A50.1,50.1,0,0,1,8,17l0,.19.18.07c.88.33,1.77.71,2.64,1.13l.58.28L11,16l-.13-.76,0-.25L11,15c2.2.37,3.91.69,5.37,1l.16,0,0,.16a11.11,11.11,0,0,0,1,6.4l.07.09a41.42,41.42,0,0,1,4.83,4.73l.13.15.2-.05a6.68,6.68,0,0,1,1.68-.2,12,12,0,0,1,2.26.25l.1,0a.33.33,0,0,0,.38-.25l0-.11a10.24,10.24,0,0,1,1.09-3.09l.07-.12.13,0a10.07,10.07,0,0,1,3,1.41l.1.06a.35.35,0,0,0,.46-.11l.05-.07a10.15,10.15,0,0,1,2.19-2.44l.11-.08.11.08a10.06,10.06,0,0,1,2.19,2.44l.07.1a.38.38,0,0,0,.49.06l.06,0a10,10,0,0,1,3-1.42l.13,0,.07.12a10.06,10.06,0,0,1,1.09,3.09l0,.11a.33.33,0,0,0,.32.26h.06l.11,0a11.44,11.44,0,0,1,2.24-.25,6.69,6.69,0,0,1,1.69.2l.2.05.13-.15A41.66,41.66,0,0,1,51.1,22.7l.07-.09a11.09,11.09,0,0,0,.94-6.38l0-.16.16,0c1.45-.33,3.16-.66,5.37-1l.25,0,0,.25c-.18,1.07-.34,2-.5,2.82l-.12.64.58-.28c.87-.42,1.75-.8,2.64-1.13l.18-.07,0-.19a50,50,0,0,1,1-5.41.33.33,0,0,0-.09-.31M48.11,13.55a12.4,12.4,0,0,0-4.08,2l-.25.18,0-.3a12.38,12.38,0,0,0-1.5-4.27L42.15,11l.13-.09c1.22-.87,2.68-1.82,4.57-3l.21-.13.06.25c.5,2.17.85,3.87,1.11,5.36l0,.16ZM42.44,26.08c.12-1.64.47-6.63,5.76-8.86l.46-.18v.36s0,.1,0,.14c0,5.75-4.51,8-6,8.72l-.28.14ZM37.38,24l-.21.24-.1-.3c-.52-1.56-2.1-6.3,1.94-10.39l.36-.35.15.35.05.11C41.73,19,38.45,22.74,37.38,24m.26-13.91-.13.1a12.44,12.44,0,0,0-3,3.37l-.16.27-.16-.27a12.39,12.39,0,0,0-3-3.37l-.13-.1.09-.14c.81-1.28,1.78-2.72,3.07-4.53l.15-.21.15.21c1.29,1.81,2.27,3.24,3.07,4.53Zm-6,13.85-.1.3L31.28,24c-1.08-1.24-4.35-5-2.19-10.35l.06-.13.14-.33.36.35c4,4.09,2.46,8.83,1.94,10.4M26.24,26.4,26,26.26c-1.47-.73-5.94-3-6-8.72,0,0,0-.09,0-.15V17l.46.18c5.29,2.23,5.65,7.22,5.77,8.86Zm-1.32-11,0,.3-.25-.18a12.4,12.4,0,0,0-4.08-2l-.15,0,0-.16c.25-1.48.6-3.18,1.1-5.36l.06-.25.22.13c1.9,1.19,3.35,2.14,4.57,3l.13.1-.08.14a12.39,12.39,0,0,0-1.51,4.27"/>
      </g>
    </g>
  </g>
</svg>
